<?xml version="1.0" standalone="no"?>
<!DOCTYPE svg PUBLIC "-//W3C//DTD SVG 20010904//EN"
 "http://www.w3.org/TR/2001/REC-SVG-20010904/DTD/svg10.dtd">
<svg version="1.0" xmlns="http://www.w3.org/2000/svg"
 width="700.000000pt" height="700.000000pt" viewBox="0 0 700.000000 700.000000"
 preserveAspectRatio="xMidYMid meet">
<metadata>
Created by potrace 1.11, written by Peter Selinger 2001-2013
</metadata>
<g transform="translate(0.000000,700.000000) scale(0.100000,-0.100000)"
fill="#000000" stroke="none">
<path d="M3717 6926 c-52 -14 -103 -55 -121 -99 -9 -19 -11 -78 -9 -185 1 -86
4 -238 6 -338 3 -169 5 -183 28 -224 34 -62 95 -97 231 -130 230 -58 385 -124
563 -242 114 -76 183 -135 315 -269 172 -175 232 -191 462 -123 67 20 137 40
153 44 17 5 98 28 180 53 83 25 205 61 271 80 208 61 230 77 249 178 13 65
-30 132 -181 283 -370 371 -827 654 -1329 825 -106 35 -345 100 -430 116 -225
41 -324 49 -388 31z"/>
<path d="M3355 5610 c-22 -4 -53 -10 -70 -13 -122 -20 -288 -84 -413 -159 -89
-53 -90 -54 -191 -139 -184 -157 -329 -390 -391 -629 -98 -374 -28 -765 192
-1075 207 -290 516 -479 868 -530 90 -13 327 -14 360 -2 8 3 33 8 55 11 72 9
218 56 312 101 334 158 573 435 682 791 31 103 38 137 50 264 29 290 -55 600
-230 848 -81 115 -308 332 -348 332 -6 0 -11 4 -11 9 0 5 -8 11 -17 14 -10 4
-38 18 -62 32 -71 43 -203 93 -313 121 -85 21 -131 26 -268 29 -91 2 -183 -1
-205 -5z"/>
<path d="M6060 5235 c-41 -13 -133 -41 -205 -63 -71 -22 -213 -66 -315 -97
-320 -98 -338 -104 -377 -147 -49 -53 -64 -133 -42 -228 17 -73 18 -79 34
-195 8 -54 8 -292 0 -346 -36 -259 -93 -423 -228 -654 -33 -55 -65 -119 -73
-143 -31 -89 -10 -226 48 -317 33 -51 918 -1187 967 -1240 161 -176 376 -211
498 -83 48 51 183 306 245 463 11 27 26 64 33 80 22 48 101 292 125 384 31
122 68 311 76 383 3 35 8 66 10 69 9 16 18 218 18 404 1 241 -7 352 -34 515
-5 30 -12 73 -16 95 -3 22 -10 60 -16 85 -5 25 -12 56 -14 70 -7 33 -40 158
-66 245 -23 80 -98 284 -129 353 -110 245 -149 297 -264 352 -90 43 -169 47
-275 15z"/>
<path d="M2484 2864 c-68 -20 -120 -51 -168 -101 -25 -26 -140 -178 -257 -338
-116 -159 -229 -312 -249 -340 -137 -183 -439 -599 -465 -640 -36 -57 -79
-162 -90 -220 -32 -168 6 -349 90 -438 101 -106 490 -340 735 -442 36 -15 79
-33 95 -41 101 -45 477 -156 605 -178 19 -3 46 -8 60 -11 14 -3 48 -8 75 -11
28 -4 53 -8 56 -10 4 -2 37 -6 75 -10 38 -3 83 -8 99 -10 54 -9 458 -11 540
-4 192 18 221 21 235 25 8 2 37 6 64 10 27 3 52 8 56 10 3 2 26 6 50 10 25 3
99 20 165 36 347 86 636 205 940 386 359 214 428 293 442 508 7 114 -16 228
-66 329 -20 39 -165 246 -321 460 -157 213 -356 485 -443 604 -87 120 -178
242 -202 273 -81 103 -199 161 -308 153 -42 -4 -96 -22 -202 -68 -67 -30 -229
-76 -337 -96 -177 -34 -459 -34 -636 0 -123 23 -277 71 -429 135 -71 29 -150
37 -209 19z"/>
</g>
</svg>
